P2
# Generated by p2write()!
8 8
255
11
51
31
71
21
61
41
81
15
55
35
75
25
65
45
85
13
53
33
73
23
63
43
83
17
57
37
77
27
67
47
87
12
52
32
72
22
62
42
82
16
56
36
76
26
66
46
86
14
54
34
74
24
64
44
84
18
58
38
78
28
68
48
88
