P2
# Generated by p2write()!
16 16
255
11
91
51
131
31
111
71
151
21
101
61
141
41
121
81
161
19
99
59
139
39
119
79
159
29
109
69
149
49
129
89
169
15
95
55
135
35
115
75
155
25
105
65
145
45
125
85
165
23
103
63
143
43
123
83
163
33
113
73
153
53
133
93
173
13
93
53
133
33
113
73
153
23
103
63
143
43
123
83
163
21
101
61
141
41
121
81
161
31
111
71
151
51
131
91
171
17
97
57
137
37
117
77
157
27
107
67
147
47
127
87
167
25
105
65
145
45
125
85
165
35
115
75
155
55
135
95
175
12
92
52
132
32
112
72
152
22
102
62
142
42
122
82
162
20
100
60
140
40
120
80
160
30
110
70
150
50
130
90
170
16
96
56
136
36
116
76
156
26
106
66
146
46
126
86
166
24
104
64
144
44
124
84
164
34
114
74
154
54
134
94
174
14
94
54
134
34
114
74
154
24
104
64
144
44
124
84
164
22
102
62
142
42
122
82
162
32
112
72
152
52
132
92
172
18
98
58
138
38
118
78
158
28
108
68
148
48
128
88
168
26
106
66
146
46
126
86
166
36
116
76
156
56
136
96
176
